<?xml version="1.0" ?><!DOCTYPE svg  PUBLIC '-//W3C//DTD SVG 1.1//EN'  'http://www.w3.org/Graphics/SVG/1.1/DTD/svg11.dtd'><svg enable-background="new 0 0 32 32" version="1.1" viewBox="0 0 32 32" xml:space="preserve" xmlns="http://www.w3.org/2000/svg" xmlns:xlink="http://www.w3.org/1999/xlink"><g id="Layer_2"/><g id="Layer_3"/><g id="Layer_4"/><g id="Layer_5"/><g id="Layer_6"/><g id="Layer_7"/><g id="Layer_8"/><g id="Layer_9"/><g id="Layer_10"/><g id="Layer_11"/><g id="Layer_12"/><g id="Layer_13"/><g id="Layer_14"/><g id="Layer_15"/><g id="Layer_16"/><g id="Layer_17"/><g id="Layer_18"/><g id="Layer_19"/><g id="Layer_20"><path d="M30,15H17V2c0-0.6-0.4-1-1-1s-1,0.4-1,1v13H2c-0.6,0-1,0.4-1,1s0.4,1,1,1h13v13c0,0.6,0.4,1,1,1s1-0.4,1-1   V17h13c0.6,0,1-0.4,1-1S30.6,15,30,15z" fill="#2197F3"/><g><path d="M16,11c-0.2,0-0.4-0.1-0.6-0.2l-5-4c-0.4-0.3-0.5-1-0.2-1.4c0.3-0.4,1-0.5,1.4-0.2L16,8.7l4.4-3.5    c0.4-0.3,1.1-0.3,1.4,0.2c0.3,0.4,0.3,1.1-0.2,1.4l-5,4C16.4,10.9,16.2,11,16,11z" fill="#16BCD4"/></g><g><path d="M21,27c-0.2,0-0.4-0.1-0.6-0.2L16,23.3l-4.4,3.5c-0.4,0.3-1.1,0.3-1.4-0.2c-0.3-0.4-0.3-1.1,0.2-1.4l5-4    c0.4-0.3,0.9-0.3,1.2,0l5,4c0.4,0.3,0.5,1,0.2,1.4C21.6,26.9,21.3,27,21,27z" fill="#16BCD4"/></g><g><path d="M6,22c-0.2,0-0.4-0.1-0.6-0.2c-0.4-0.3-0.5-1-0.2-1.4L8.7,16l-3.5-4.4c-0.3-0.4-0.3-1.1,0.2-1.4    c0.4-0.3,1.1-0.3,1.4,0.2l4,5c0.3,0.4,0.3,0.9,0,1.2l-4,5C6.6,21.9,6.3,22,6,22z" fill="#16BCD4"/></g><g><path d="M26,22c-0.3,0-0.6-0.1-0.8-0.4l-4-5c-0.3-0.4-0.3-0.9,0-1.2l4-5c0.3-0.4,1-0.5,1.4-0.2    c0.4,0.3,0.5,1,0.2,1.4L23.3,16l3.5,4.4c0.3,0.4,0.3,1.1-0.2,1.4C26.4,21.9,26.2,22,26,22z" fill="#16BCD4"/></g></g><g id="Layer_21"/><g id="Layer_22"/><g id="Layer_23"/><g id="Layer_24"/><g id="Layer_25"/><g id="Wearher"/></svg>