<?xml version="1.0" ?><!DOCTYPE svg  PUBLIC '-//W3C//DTD SVG 1.1//EN'  'http://www.w3.org/Graphics/SVG/1.1/DTD/svg11.dtd'><svg enable-background="new 0 0 32 32" version="1.1" viewBox="0 0 32 32" xml:space="preserve" xmlns="http://www.w3.org/2000/svg" xmlns:xlink="http://www.w3.org/1999/xlink"><g id="Layer_2"/><g id="Layer_3"/><g id="Layer_4"/><g id="Layer_5"/><g id="Layer_6"/><g id="Layer_7"/><g id="Layer_8"/><g id="Layer_9"/><g id="Layer_10"/><g id="Layer_11"/><g id="Layer_12"/><g id="Layer_13"/><g id="Layer_14"/><g id="Layer_15"/><g id="Layer_16"/><g id="Layer_17"/><g id="Layer_18"/><g id="Layer_19"/><g id="Layer_20"/><g id="Layer_21"/><g id="Layer_22"><g><path d="M16.5,22.1c-0.5-0.3-1.1-0.1-1.4,0.4l-1.2,2.2c-0.3,0.5-0.1,1.1,0.4,1.4c0.2,0.1,0.3,0.1,0.5,0.1    c0.3,0,0.7-0.2,0.9-0.5l1.2-2.2C17.1,23,17,22.4,16.5,22.1z" fill="#16BCD4"/><path d="M13.7,27c-0.5-0.3-1.1-0.1-1.4,0.4l-1.2,2.2c-0.3,0.5-0.1,1.1,0.4,1.4C11.7,31,11.8,31,12,31    c0.3,0,0.7-0.2,0.9-0.5l1.2-2.2C14.4,27.8,14.2,27.2,13.7,27z" fill="#16BCD4"/><path d="M10.5,22.1C10,21.9,9.4,22,9.1,22.5l-1.2,2.2c-0.3,0.5-0.1,1.1,0.4,1.4c0.2,0.1,0.3,0.1,0.5,0.1    c0.3,0,0.7-0.2,0.9-0.5l1.2-2.2C11.1,23,11,22.4,10.5,22.1z" fill="#16BCD4"/><path d="M7.7,27c-0.5-0.3-1.1-0.1-1.4,0.4l-1.2,2.2C4.9,30,5,30.6,5.5,30.9C5.7,31,5.8,31,6,31    c0.3,0,0.7-0.2,0.9-0.5l1.2-2.2C8.4,27.8,8.2,27.2,7.7,27z" fill="#16BCD4"/><path d="M22.5,22.1c-0.5-0.3-1.1-0.1-1.4,0.4l-1.2,2.2c-0.3,0.5-0.1,1.1,0.4,1.4c0.2,0.1,0.3,0.1,0.5,0.1    c0.3,0,0.7-0.2,0.9-0.5l1.2-2.2C23.1,23,23,22.4,22.5,22.1z" fill="#16BCD4"/><path d="M19.7,27c-0.5-0.3-1.1-0.1-1.4,0.4l-1.2,2.2c-0.3,0.5-0.1,1.1,0.4,1.4C17.7,31,17.8,31,18,31    c0.3,0,0.7-0.2,0.9-0.5l1.2-2.2C20.4,27.8,20.2,27.2,19.7,27z" fill="#16BCD4"/></g><g><path d="M31,15c0,5-4.5,9-10,9H8c-3.9,0-7-3.1-7-7s3.1-7,7-7c1.4,0,2.8,0.4,3.9,1.2C13.5,8.1,17.1,6,21,6    C26.5,6,31,10,31,15z" fill="#607C8B"/></g></g><g id="Layer_23"/><g id="Layer_24"/><g id="Layer_25"/><g id="Wearher"/></svg>